<?xml version="1.0" standalone="no"?>
<!DOCTYPE svg PUBLIC "-//W3C//DTD SVG 20010904//EN"
 "http://www.w3.org/TR/2001/REC-SVG-20010904/DTD/svg10.dtd">
<svg version="1.0" xmlns="http://www.w3.org/2000/svg"
 width="1655.000000pt" height="142.000000pt" viewBox="0 0 1655.000000 142.000000"
 preserveAspectRatio="xMidYMid meet">

<g transform="translate(0.000000,142.000000) scale(0.100000,-0.100000)"
fill="#0B4D8F" stroke="none">
<path d="M110 710 l0 -650 285 0 285 0 0 650 0 650 -285 0 -285 0 0 -650z"/>
<path d="M820 710 l0 -650 285 0 285 0 0 650 0 650 -285 0 -285 0 0 -650z"/>
<path d="M2563 1208 c-6 -7 -33 -56 -61 -108 l-50 -95 216 -392 217 -393 118
0 c65 0 116 3 114 8 -6 9 -528 963 -537 980 -5 11 -8 11 -17 0z"/>
<path d="M6668 740 c-1 -264 -2 -490 -2 -502 -1 -22 3 -23 92 -26 l92 -3 0
168 c0 92 3 259 7 370 l6 201 181 -233 c177 -229 182 -234 218 -235 36 0 39 4
220 235 l183 235 3 -370 2 -370 94 0 93 0 6 152 c4 83 7 310 7 505 l0 354
-107 -3 -107 -3 -124 -160 c-68 -88 -154 -199 -191 -247 l-68 -87 -194 249
-194 250 -107 0 -108 0 -2 -480z"/>
<path d="M12400 710 l0 -501 98 3 97 3 3 423 2 422 250 0 250 0 0 75 0 75
-350 0 -350 0 0 -500z"/>
<path d="M3220 630 l0 -420 103 0 103 0 199 295 200 294 3 -294 2 -295 100 0
100 0 0 420 0 421 -112 -3 -113 -3 -195 -288 -195 -289 -3 291 -2 291 -95 0
-95 0 0 -420z"/>
<path d="M4560 1001 l0 -49 -103 -4 c-87 -3 -111 -7 -159 -31 -109 -54 -171
-155 -170 -282 1 -82 29 -148 90 -208 67 -65 121 -87 242 -94 l100 -6 0 -59 0
-58 80 0 80 0 0 58 0 59 101 6 c120 7 185 33 249 97 60 60 84 119 84 210 1
123 -58 220 -169 278 -42 21 -67 26 -157 30 l-108 5 0 48 0 49 -80 0 -80 0 0
-49z m0 -361 l0 -140 -75 0 c-116 0 -176 36 -191 116 -8 45 0 76 33 114 35 43
54 49 151 49 l82 1 0 -140z m364 121 c90 -59 87 -184 -6 -241 -26 -16 -51 -20
-115 -20 l-83 0 0 140 0 140 88 0 c68 0 93 -4 116 -19z"/>
<path d="M5170 970 l0 -80 165 0 165 0 0 -340 0 -340 93 0 94 0 6 107 c4 58 7
211 7 340 l0 233 165 0 165 0 0 80 0 80 -430 0 -430 0 0 -80z"/>
<path d="M7980 970 l0 -80 365 0 365 0 0 80 0 80 -365 0 -365 0 0 -80z"/>
<path d="M9060 710 l-175 -340 -37 0 -38 0 0 -80 0 -80 505 0 505 0 0 79 0 80
-47 3 -48 3 -173 338 -173 337 -73 0 -72 0 -174 -340z m344 -137 c53 -103 96
-191 96 -195 0 -4 -88 -8 -195 -8 -107 0 -195 2 -195 5 0 9 190 385 194 385 3
0 48 -84 100 -187z"/>
<path d="M9900 630 l0 -420 103 0 103 0 199 295 200 296 3 -296 2 -295 100 0
100 0 0 420 0 420 -112 0 -113 -1 -195 -290 -195 -291 -3 291 -2 291 -95 0
-95 0 0 -420z"/>
<path d="M11005 644 c-110 -224 -201 -410 -203 -415 -2 -5 43 -9 101 -9 l104
0 32 70 33 70 229 0 230 0 31 -70 31 -70 108 0 108 0 -49 103 c-27 56 -116
242 -198 412 l-150 310 -103 3 -104 3 -200 -407z m362 75 c30 -68 60 -139 68
-156 l14 -33 -149 0 -148 0 71 160 c39 88 76 159 81 157 5 -2 33 -59 63 -128z"/>
<path d="M13190 971 l0 -80 254 -3 c239 -3 256 -4 282 -24 49 -36 67 -70 68
-123 1 -54 -17 -88 -68 -125 -26 -20 -43 -21 -282 -24 l-254 -3 0 -189 0 -190
95 0 95 0 0 73 c0 39 3 88 6 108 l6 37 172 4 c167 3 173 4 236 34 79 38 135
92 167 162 21 45 24 65 21 125 -2 43 -12 88 -23 112 -29 60 -106 130 -172 157
-55 21 -73 23 -330 26 l-273 3 0 -80z"/>
<path d="M13996 1003 c70 -122 298 -510 309 -529 12 -19 7 -33 -51 -138 -35
-64 -64 -119 -64 -122 0 -2 45 -3 100 -2 l101 3 224 414 c124 227 225 415 225
417 0 2 -44 4 -99 4 l-98 0 -110 -202 c-61 -112 -114 -203 -118 -203 -4 0 -59
91 -122 203 l-115 202 -105 0 -105 0 28 -47z"/>
<path d="M14920 877 c0 -96 3 -282 7 -415 l6 -242 83 0 84 0 2 313 3 312 173
3 172 2 0 -315 0 -315 90 0 90 0 0 415 0 415 -355 0 -355 0 0 -173z"/>
<path d="M15740 635 l0 -415 85 0 85 0 2 313 3 312 173 3 172 2 0 -315 0 -315
90 0 90 0 0 415 0 415 -350 0 -350 0 0 -415z"/>
<path d="M2377 868 c-8 -12 -83 -149 -167 -303 -84 -154 -161 -295 -172 -312
l-20 -33 120 0 119 0 126 231 126 230 -56 102 c-31 56 -57 104 -59 105 -1 2
-9 -7 -17 -20z"/>
<path d="M7978 473 c-2 -137 0 -251 3 -256 3 -4 171 -6 375 -5 l369 3 3 77 3
78 -278 2 -278 3 -3 93 -3 92 241 0 240 0 0 80 0 80 -335 0 -334 0 -3 -247z"/>
</g>
</svg>
